{
  "$comment": "P3 task 5 fixture: minimal triangle in XY plane with POSITION (vec3), NORMAL (vec3, +Z), TEXCOORD_0 (vec2). 102-byte embedded binary buffer. Hand-crafted; do not regenerate.",
  "asset": { "version": "2.0", "generator": "tide-fixture" },
  "scene": 0,
  "scenes": [ { "nodes": [0] } ],
  "nodes":  [ { "mesh": 0 } ],
  "meshes": [
    {
      "primitives": [
        {
          "attributes": {
            "POSITION":   0,
            "NORMAL":     1,
            "TEXCOORD_0": 2
          },
          "indices": 3,
          "mode": 4
        }
      ]
    }
  ],
  "accessors": [
    { "bufferView": 0, "componentType": 5126, "count": 3, "type": "VEC3", "min": [0.0, 0.0, 0.0], "max": [1.0, 1.0, 0.0] },
    { "bufferView": 1, "componentType": 5126, "count": 3, "type": "VEC3" },
    { "bufferView": 2, "componentType": 5126, "count": 3, "type": "VEC2" },
    { "bufferView": 3, "componentType": 5123, "count": 3, "type": "SCALAR" }
  ],
  "bufferViews": [
    { "buffer": 0, "byteOffset":  0, "byteLength": 36 },
    { "buffer": 0, "byteOffset": 36, "byteLength": 36 },
    { "buffer": 0, "byteOffset": 72, "byteLength": 24 },
    { "buffer": 0, "byteOffset": 96, "byteLength":  6 }
  ],
  "buffers": [
    {
      "byteLength": 102,
      "uri": "data:application/octet-stream;base64,"
    }
  ]
}
